<svg xmlns="http://www.w3.org/2000/svg" viewBox="0 0 249 150"><defs><style>.cls-1{fill:#23b7d3;}.cls-2{fill:#010000;}.cls-3{fill:#fff;}.cls-4{fill:#fc5b58;}.cls-5{fill:#ffc02d;}.cls-6{fill:#19c337;}.cls-7{font-size:8.52px;font-family:MyriadPro-Regular, Myriad Pro;}.cls-8{font-size:18.05px;font-family:Calibri-Light, Calibri;font-weight:300;}.cls-9{letter-spacing:-0.01em;}.cls-10{letter-spacing:-0.01em;}.cls-11{fill:#8aa0ae;}</style></defs><title>logo local</title><g id="Camada_1" data-name="Camada 1"><rect class="cls-1" width="249" height="150"/></g><g id="Camada_2" data-name="Camada 2"><path class="cls-2" d="M81.5,22.84h89.35a17.5,17.5,0,0,1,17.5,17.5v1.44a0,0,0,0,1,0,0H64a0,0,0,0,1,0,0V40.34a17.5,17.5,0,0,1,17.5-17.5Z"/><rect class="cls-3" x="64" y="41.78" width="124.35" height="85.22"/><polygon class="cls-3" points="178.68 26.74 112.9 26.74 106.03 37.59 178.68 37.59 178.68 26.74"/><circle class="cls-4" cx="77.12" cy="32.17" r="3.21"/><circle class="cls-5" cx="85.98" cy="32.17" r="3.21"/><circle class="cls-6" cx="94.84" cy="32.17" r="3.21"/><rect x="166.65" y="31.82" width="6.69" height="0.96"/><rect x="171.02" y="30.57" width="4.49" height="0.96" transform="translate(71.71 -113.42) rotate(45)"/><rect x="171.02" y="33.09" width="4.49" height="0.96" transform="translate(318.52 -65.21) rotate(135)"/><text class="cls-7" transform="translate(113.12 35.13)">127.0.0.1</text><text class="cls-8" transform="translate(78.51 88.24)">lo<tspan class="cls-9" x="13.39" y="0">c</tspan><tspan x="20.89" y="0">alho</tspan><tspan class="cls-10" x="52.15" y="0">s</tspan><tspan x="58.91" y="0">t:305</tspan></text><polygon class="cls-11" points="147.86 120.59 104.44 120.59 96.69 126.97 155.91 126.97 147.86 120.59"/></g></svg>